<svg width="36" height="35" viewBox="0 0 36 35" fill="none" xmlns="http://www.w3.org/2000/svg">
<g id="Frame" clip-path="url(#clip0_254_544)">
<g id="Group">
<path id="Vector" d="M12.8389 35H7.23395C6.29776 35 5.53617 34.2385 5.53617 33.3022V20.66H2.26613C1.32988 20.66 0.568359 19.8982 0.568359 18.9622V13.545C0.568359 12.6087 1.32988 11.8472 2.26613 11.8472H5.53617V9.13445C5.53617 6.44465 6.38075 4.15625 7.97838 2.51692C9.58325 0.870215 11.8261 0 14.4643 0L18.7388 0.00697266C19.6734 0.00854492 20.4337 0.770137 20.4337 1.70468V6.73449C20.4337 7.67067 19.6724 8.43227 18.7364 8.43227L15.8584 8.43329C14.9807 8.43329 14.7572 8.60925 14.7094 8.66318C14.6306 8.75273 14.5369 9.00553 14.5369 9.70382V11.847H18.5202C18.82 11.847 19.1106 11.921 19.3602 12.0603C19.8989 12.3613 20.2337 12.9303 20.2337 13.5453L20.2316 18.9625C20.2316 19.8982 19.47 20.6598 18.5338 20.6598H14.5368V33.3022C14.5369 34.2385 13.7751 35 12.8389 35ZM7.58798 32.9481H12.4848V19.7415C12.4848 19.1164 12.9935 18.608 13.6183 18.608H18.1797L18.1816 13.8992H13.618C12.9932 13.8992 12.4848 13.3908 12.4848 12.7656V9.70389C12.4848 8.9023 12.5663 7.99066 13.1713 7.30543C13.9025 6.47712 15.0547 6.38155 15.8579 6.38155L18.3819 6.38046V2.05823L14.4627 2.05188C10.2228 2.05188 7.58805 4.76595 7.58805 9.13452V12.7656C7.58805 13.3904 7.07959 13.8991 6.45472 13.8991H2.62023V18.6079H6.45472C7.07959 18.6079 7.58805 19.1164 7.58805 19.7414L7.58798 32.9481Z" fill="#1A2632"/>
</g>
</g>
<defs>
<clipPath id="clip0_254_544">
<rect width="35" height="35" fill="white" transform="translate(0.5)"/>
</clipPath>
</defs>
</svg>
