<svg width="50" height="50" viewBox="0 0 50 50" fill="none" xmlns="http://www.w3.org/2000/svg">
<g id="Frame">
<g id="Group">
<path id="Vector" d="M39.7726 18.1289H42.0456V43.2084H39.7726V18.1289ZM7.95468 18.1289H10.2273V43.2084H7.95468V18.1289Z" fill="#EE682C"/>
<path id="Vector_2" d="M44.6591 44.3505H5.34077C2.39116 44.3505 0 41.9593 0 39.0096V11.0552C0 8.10551 2.39116 5.71436 5.34088 5.71436H44.659C47.6087 5.71436 49.9999 8.10551 49.9999 11.0552V39.0096C49.9999 41.9593 47.6087 44.3505 44.659 44.3505H44.6591ZM5.34077 7.98694C3.64624 7.98694 2.27248 9.3607 2.27248 11.0551V39.0097C2.27248 40.7041 3.64624 42.0779 5.34066 42.0779H44.6591C46.3537 42.0779 47.7274 40.7041 47.7274 39.0097V11.0551C47.7274 9.3607 46.3537 7.98694 44.6592 7.98694H5.34077Z" fill="#EE682C"/>
<path id="Vector_3" d="M25.0002 33.8105L0.383728 11.9074L1.88927 10.2029L25.0002 30.771L48.111 10.2029L49.6166 11.9074L25.0002 33.8105Z" fill="#EE682C"/>
<path id="Vector_4" d="M25.0002 23.5832L6.93175 7.70259L8.42323 5.99805L25.0002 20.5579L41.5625 5.99805L43.0681 7.70259L25.0002 23.5832Z" fill="#EE682C"/>
</g>
</g>
</svg>
