<svg width="36" height="35" viewBox="0 0 36 35" fill="none" xmlns="http://www.w3.org/2000/svg">
<g id="Group">
<path id="Vector" d="M26.75 0H9.25C4.43793 0 0.5 3.93783 0.5 8.74979V26.2502C0.5 31.0609 4.43793 35 9.25 35H26.75C31.5621 35 35.5 31.0609 35.5 26.2502V8.74979C35.5 3.93783 31.5621 0 26.75 0ZM32.5832 26.2502C32.5832 29.4658 29.9674 32.0833 26.75 32.0833H9.25C6.03395 32.0833 3.41681 29.4658 3.41681 26.2502V8.74979C3.41681 5.53339 6.03395 2.91674 9.25 2.91674H26.75C29.9674 2.91674 32.5832 5.53339 32.5832 8.74979V26.2502Z" fill="#1A2632"/>
<path id="Vector_2" d="M27.4802 10.2079C28.6883 10.2079 29.6677 9.22855 29.6677 8.02045C29.6677 6.81236 28.6883 5.83301 27.4802 5.83301C26.2721 5.83301 25.2927 6.81236 25.2927 8.02045C25.2927 9.22855 26.2721 10.2079 27.4802 10.2079Z" fill="#1A2632"/>
<path id="Vector_3" d="M18 8.74976C13.1665 8.74976 9.25 12.6666 9.25 17.4995C9.25 22.3307 13.1665 26.2502 18 26.2502C22.8322 26.2502 26.75 22.3307 26.75 17.4995C26.75 12.6666 22.8322 8.74976 18 8.74976ZM18 23.3334C14.7786 23.3334 12.1668 20.7217 12.1668 17.4995C12.1668 14.2774 14.7786 11.6665 18 11.6665C21.2213 11.6665 23.8332 14.2774 23.8332 17.4995C23.8332 20.7217 21.2213 23.3334 18 23.3334Z" fill="#1A2632"/>
</g>
</svg>
