<?xml version="1.0" encoding="utf-8"?>
<!-- Generator: Adobe Illustrator 28.0.0, SVG Export Plug-In . SVG Version: 6.00 Build 0)  -->
<svg version="1.1" id="Layer_1" xmlns="http://www.w3.org/2000/svg" xmlns:xlink="http://www.w3.org/1999/xlink" x="0px" y="0px"
	 viewBox="0 0 1417.32 1133.86" style="enable-background:new 0 0 1417.32 1133.86;" xml:space="preserve">
<style type="text/css">
	.st0{fill:#F16022;}
	.st1{fill:#676868;}
</style>
<g>
	<path class="st0" d="M708.02,403.1c180.11,0,338.21,106.86,427.92,267.76c-79.75-186.11-242.19-313.55-429.63-313.55
		c-196.14,0-364.99,139.68-440.23,340.15C352.67,521.82,518.13,403.1,708.02,403.1z"/>
	<polygon class="st1" points="286.9,447.05 283.02,457.42 345.54,457.42 347.63,447.05 	"/>
	<polygon class="st1" points="344.96,464.12 342.07,478.79 315.36,478.79 315.36,473.23 312.69,478.79 273.91,478.79 279.74,464.12 
			"/>
	<polygon class="st1" points="263.86,501.96 270.9,485.97 310.42,485.97 303.5,501.96 	"/>
	<polygon class="st1" points="311.1,501.96 313.63,485.97 340.74,485.97 338.07,501.96 	"/>
	<polygon class="st1" points="254.02,526.23 261.4,509 300.52,509 293.31,526.23 	"/>
	<polygon class="st1" points="245.47,546.97 251.23,533.33 290.1,533.33 284.61,546.97 	"/>
	<polygon class="st1" points="237.49,566 242.34,553.89 281.86,553.89 276.66,566 	"/>
	<polygon class="st1" points="301.26,566 303.38,553.89 340.74,553.89 332.04,566 	"/>
	<polygon class="st1" points="304.56,546.97 306.44,533.33 356.41,533.33 346.24,546.97 	"/>
	<polygon class="st1" points="309.94,508.52 307.46,526.23 333.68,526.23 336.76,508.52 	"/>
	<polygon class="st1" points="335.78,526.23 347.85,508.52 374.39,508.52 362.02,526.23 	"/>
	<polygon class="st1" points="352.57,501.96 363.61,485.97 391.23,485.97 379.66,501.96 	"/>
	<polygon class="st1" points="368.72,478.79 379.09,464.12 440.91,464.12 434.33,478.79 397.72,478.79 399.62,475.05 396.13,478.79 
			"/>
	<polygon class="st1" points="383.62,457.17 443.77,457.17 448.69,446.78 391.23,446.78 	"/>
	<polygon class="st1" points="387.45,501.96 394.34,485.97 430.73,485.97 424.06,501.96 	"/>
	<polygon class="st1" points="375.9,526.23 383.57,508.52 420.83,508.52 413.07,526.23 	"/>
	<polygon class="st1" points="372.77,533.33 366.07,546.97 403.72,546.97 410.18,533.33 	"/>
	<polygon class="st1" points="363.08,553.89 357.8,566 395.11,566 400.82,553.89 	"/>
	<path class="st1" d="M424.06,553.89v2.44c0,0,2.87,9.09,15.96,9.51l77.82,0.07c0,0,12.29-0.9,24.13-11.61L424.06,553.89z"/>
	<path class="st1" d="M557.14,532.98c0,0-4.43,11.05-7.83,13.88H424.06l4.68-13.88h41.19c0,0,0.94,2.28,2.24,2.83l38.08,0.28
		c0,0,3.78-0.54,4.75-3.11H557.14z"/>
	<polygon class="st1" points="480.19,508.52 472.53,526.23 432.01,526.23 439.17,508.52 	"/>
	<polygon class="st1" points="449.6,485.97 442.69,501.96 483.01,501.96 490.6,485.97 	"/>
	<path class="st1" d="M452.43,478.79c0,0,6.58-14.14,9.91-14.67h123.4c0,0,0.17,6.95-4.82,14.67h-42.76c0,0-3.01-1.81-5.16-1.81
		l-34.06-0.17c0,0-3.18,0.56-3.71,1.98H452.43z"/>
	<path class="st1" d="M469.83,457.17h114.09c0,0-1.42-7.96-20.22-10.38h-62.3C501.4,446.78,477.27,450.2,469.83,457.17z"/>
	<path class="st1" d="M566.13,553.89h130.12c0,0-8.56,9.45-28.25,12.14h-107.2L566.13,553.89z"/>
	<path class="st1" d="M569.34,546.86h133.79l5.83-13.88h-44.35c0,0-2.02,1.27-3.11,1.59l-46.03,0.34l0.67-1.94h-40.66L569.34,546.86
		z"/>
	<polygon class="st1" points="585.73,508.75 627.45,508.75 619.66,526.14 577.78,526.14 	"/>
	<polygon class="st1" points="588.91,501.68 595.92,486.06 637.52,486.06 630.8,501.68 	"/>
	<path class="st1" d="M599.18,478.79l6.87-14.67h131.69c0,0-0.12,7.27-4.8,14.67h-42.66c0,0-2.43-2.85-5.3-2.75
		c-2.84,0.12-42.23-0.1-42.23-0.1s-1.49,1.99-1.49,2.85H599.18z"/>
	<path class="st1" d="M609.03,457.17h127.42c0,0-4.89-9.34-16.89-10.38H613.25L609.03,457.17z"/>
	<polygon class="st1" points="688.01,486.06 680.23,501.68 723.01,501.68 730.33,486.06 	"/>
	<polygon class="st1" points="677.51,508.75 670.06,526.14 712.24,526.14 719.71,508.75 	"/>
	<polygon class="st1" points="767.6,446.78 880.85,446.78 876.36,457.17 763.14,457.17 	"/>
	<polygon class="st1" points="759.98,464.12 753.38,478.79 794.83,479.33 794.83,478.03 866.17,478.18 873.06,464.12 	"/>
	<polygon class="st1" points="750.24,486.06 791.67,486.06 787.79,493.85 859.18,494.37 855.71,501.68 742.92,501.68 	"/>
	<polygon class="st1" points="740.65,508.75 853.03,508.75 847.92,519.66 775.98,519.66 772.85,526.14 732.46,526.14 	"/>
	<polygon class="st1" points="729.03,532.98 770.15,532.98 769.67,534.68 841.2,534.68 835.37,546.86 722.55,546.86 	"/>
	<polygon class="st1" points="719.71,553.89 714.79,566.03 827.29,566.03 831.78,553.89 	"/>
	<polygon class="st1" points="851.13,553.89 892.22,553.89 887.84,566.03 844.96,566.03 	"/>
	<polygon class="st1" points="853.9,546.86 860.53,532.98 901.38,532.98 895.62,546.86 	"/>
	<path class="st1" d="M862.7,526.14h41.09l2.22-5.6h41.26c0,0,5.16-0.35,3.08,5.73h40.59c0,0,2.41-9.81,1.52-12.4
		c0,0-1.4-4.5-4.87-5.2H870.8L862.7,526.14z"/>
	<path class="st1" d="M880.85,486.03h41.48c0,0-3.64,8.82-3.64,9.69h38.88c0,0,9.54,0,10.2-9.69h39.96c0,0-2.29,9.59-13.96,15.82
		h-120.1L880.85,486.03z"/>
	<path class="st1" d="M883.84,479.33H925l1.33-2.82h39.91c0,0,3.08,0.44,3.78,2.45l41.09,0.37c0,0,5.47-9.46,5.47-15.08H890.42
		L883.84,479.33z"/>
	<path class="st1" d="M893.62,457.17l4.19-10.03l100.5-0.17c0,0,15.86,1.2,18.27,10.2H893.62z"/>
	<polygon class="st1" points="1045,446.96 1039.96,457.17 1096.79,457.17 1093.83,446.96 	"/>
	<polygon class="st1" points="988.17,533.65 981.66,546.86 941.8,546.86 947.37,532.98 	"/>
	<polygon class="st1" points="978.77,553.89 973.4,566.03 933.85,566.03 938.45,553.89 	"/>
	<polygon class="st1" points="997.54,553.89 992.65,566.03 1031.72,566.03 1036.2,553.89 	"/>
	<polygon class="st1" points="1000.89,546.86 1006.44,532.98 1044.42,532.98 1039.38,546.86 	"/>
	<polygon class="st1" points="1010.1,526.27 1017.26,508.67 1054.62,508.67 1047.48,526.27 	"/>
	<polygon class="st1" points="1020.59,501.86 1027.55,486.03 1104.65,486.03 1109.11,501.3 1067.32,501.86 1062.74,488.47 
		1057.32,501.86 	"/>
	<polygon class="st1" points="1030.49,479.1 1036.95,464.25 1098.94,464.25 1103.04,479.33 	"/>
	<polygon class="st1" points="1137.21,446.96 1133.02,457.17 1170.69,457.17 1175.27,446.96 	"/>
	<polygon class="st1" points="1130.2,464.25 1124,479.33 1161.92,479.33 1167.7,464.25 	"/>
	<polygon class="st1" points="1121.06,486.03 1113.64,501.86 1151.74,501.86 1158.54,486.03 	"/>
	<polygon class="st1" points="1068.33,508.67 1074.14,526.27 1141.6,526.27 1148.73,508.67 	"/>
	<polygon class="st1" points="1075.75,532.98 1080.31,546.86 1133.02,546.86 1138.61,532.98 	"/>
	<polygon class="st1" points="1081.71,553.89 1085.32,566.03 1124,566.03 1129.84,553.89 	"/>
	<polygon class="st1" points="577.78,486.06 571.27,501.96 530.13,501.68 536.83,485.97 	"/>
	<polygon class="st1" points="568.23,508.75 560.81,526.14 519.09,526.14 526.87,508.75 	"/>
	<polygon class="st0" points="923.22,610.23 930.06,595.6 873.28,595.6 842.04,663.78 900.15,663.78 907.07,648.21 872.58,648.21 
		878.99,635.76 906.35,635.76 912.81,621.76 884.9,621.76 889.38,609.92 	"/>
	<polygon class="st0" points="798.16,595.6 769.69,663.78 751.18,663.78 738.87,622.99 721.56,663.78 700.93,663.78 731.08,595.6 
		752.73,595.6 764.15,634.19 781,595.6 	"/>
	<polygon class="st0" points="657.45,595.6 627.25,663.78 605.25,663.78 635.93,595.6 	"/>
	<polygon class="st0" points="543.96,647.58 535.38,663.78 481.44,663.78 512.73,595.6 535.38,595.6 512.73,647.29 	"/>
	<rect x="482.09" y="678.11" class="st0" width="422.11" height="2.8"/>
</g>
</svg>
