<svg width="50" height="50" viewBox="0 0 50 50" fill="none" xmlns="http://www.w3.org/2000/svg">
<g id="Frame" clip-path="url(#clip0_249_585)">
<g id="Group">
<path id="Vector" d="M10.1885 33.2366C15.1201 39.1318 21.0567 43.7733 27.8325 47.0576C30.4122 48.2802 33.8623 49.7306 37.7061 49.9793C37.9444 49.9896 38.1723 50 38.4106 50C40.9904 50 43.0625 49.109 44.7512 47.2752C44.7616 47.2648 44.7823 47.2441 44.7927 47.2234C45.3936 46.4981 46.0774 45.8454 46.7923 45.1513C47.2792 44.685 47.7765 44.1981 48.2531 43.7008C50.4599 41.4007 50.4599 38.4791 48.2324 36.2516L42.0057 30.0249C40.9489 28.9266 39.6849 28.3465 38.3588 28.3465C37.0326 28.3465 35.7583 28.9266 34.6704 30.0145L30.9613 33.7236C30.6195 33.5267 30.2672 33.3506 29.9357 33.1848C29.5212 32.9776 29.1379 32.7808 28.796 32.5632C25.4185 30.4186 22.3517 27.6212 19.4197 24.0261C17.9381 22.1508 16.9435 20.576 16.2494 18.9702C17.2233 18.0895 18.135 17.1674 19.0156 16.2661C19.3265 15.9449 19.6476 15.6237 19.9688 15.3025C21.0878 14.1836 21.6887 12.8885 21.6887 11.5727C21.6887 10.2569 21.0981 8.96187 19.9688 7.84293L16.8814 4.75549C16.5187 4.39287 16.1769 4.04061 15.8246 3.67799C15.1408 2.97348 14.4259 2.24824 13.7214 1.59552C12.6543 0.549109 11.4006 0 10.0745 0C8.7587 0 7.49471 0.549109 6.38613 1.60588L2.51129 5.48073C1.10226 6.88976 0.304493 8.59925 0.138724 10.5781C-0.058126 13.0543 0.397738 15.6859 1.57884 18.8666C3.39194 23.7878 6.12712 28.3568 10.1885 33.2366ZM2.6667 10.7957C2.79102 9.41774 3.31941 8.26772 4.31402 7.2731L8.16815 3.41898C8.76906 2.83879 9.43214 2.53833 10.0745 2.53833C10.7065 2.53833 11.3488 2.83879 11.9394 3.4397C12.6335 4.08206 13.2863 4.75549 13.9908 5.47037C14.343 5.83299 14.7057 6.19561 15.0683 6.56859L18.1557 9.65603C18.7981 10.2984 19.1296 10.9511 19.1296 11.5935C19.1296 12.2358 18.7981 12.8885 18.1557 13.5309C17.8345 13.8521 17.5134 14.1836 17.1922 14.5048C16.2287 15.4787 15.3273 16.4007 14.3327 17.2814L14.2809 17.3332C13.4209 18.1931 13.5556 19.0116 13.7628 19.6332C13.7732 19.6643 13.7836 19.685 13.7939 19.7161C14.5917 21.6328 15.7003 23.4563 17.4305 25.632C20.5386 29.4654 23.8126 32.4389 27.418 34.7286C27.8635 35.0187 28.3401 35.2466 28.7856 35.4745C29.2001 35.6817 29.5834 35.8786 29.9253 36.0961C29.9667 36.1169 29.9978 36.1376 30.0393 36.1583C30.3812 36.3344 30.7127 36.4173 31.0442 36.4173C31.8731 36.4173 32.4118 35.8889 32.588 35.7128L36.4628 31.838C37.0637 31.237 37.7164 30.9159 38.3588 30.9159C39.1462 30.9159 39.7885 31.4028 40.1926 31.838L46.44 38.075C47.6833 39.3183 47.6729 40.6651 46.4089 41.9809C45.9738 42.4472 45.5179 42.8927 45.031 43.3589C44.3057 44.0634 43.5494 44.7886 42.8656 45.6071C41.6742 46.8918 40.2548 47.4927 38.4209 47.4927C38.2448 47.4927 38.0583 47.4824 37.8822 47.472C34.4839 47.2545 31.324 45.9283 28.9514 44.799C22.5071 41.6805 16.8503 37.2565 12.157 31.6411C8.29247 26.9892 5.69198 22.6585 3.97213 18.017C2.90499 15.1678 2.50093 12.8782 2.6667 10.7957Z" fill="#EE682C"/>
</g>
</g>
<defs>
<clipPath id="clip0_249_585">
<rect width="50" height="50" fill="white"/>
</clipPath>
</defs>
</svg>
