<svg width="36" height="35" viewBox="0 0 36 35" fill="none" xmlns="http://www.w3.org/2000/svg">
<g id="Frame" clip-path="url(#clip0_254_551)">
<g id="Group">
<path id="Vector" d="M1.18979 28.5761C4.45247 30.6386 8.2353 31.7287 12.0952 31.7188C17.7973 31.7188 23.0225 29.5284 26.8098 25.5515C30.4338 21.7452 32.4273 16.6309 32.3281 11.4406C33.7019 10.2652 35.3177 8.02086 35.3177 5.83336C35.3178 5.6406 35.267 5.45124 35.1703 5.28446C35.0737 5.11767 34.9347 4.97939 34.7674 4.88361C34.6001 4.78783 34.4105 4.73796 34.2178 4.73905C34.025 4.74014 33.836 4.79215 33.6698 4.88982C32.3792 5.64815 31.2023 5.84648 29.9919 5.50669C27.52 3.09753 23.8406 2.59003 20.7402 4.26128C18.0306 5.71961 16.5242 8.38836 16.6598 11.305C12.065 10.7445 7.85889 8.44708 4.90417 4.88398C4.79196 4.74823 4.64864 4.64158 4.48638 4.57309C4.32412 4.50461 4.14772 4.47633 3.97218 4.49065C3.79664 4.50496 3.62715 4.56146 3.47813 4.65533C3.32911 4.7492 3.20497 4.87767 3.11625 5.02982C1.69583 7.46232 1.71042 10.2813 2.94562 12.5577C2.67807 12.6022 2.43522 12.7409 2.26087 12.9486C2.08653 13.1564 1.99216 13.4196 1.99479 13.6909C1.99851 14.7979 2.24048 15.8913 2.70424 16.8965C3.168 17.9018 3.8427 18.7955 4.6825 19.5169C4.53344 19.66 4.42802 19.8424 4.37846 20.0429C4.32889 20.2435 4.33723 20.454 4.4025 20.65C4.75954 21.7151 5.34098 22.6912 6.10755 23.5124C6.87412 24.3336 7.80797 24.9807 8.84604 25.41C6.6886 26.4393 4.28501 26.8406 1.91021 26.5679C0.766874 26.4134 0.202499 27.9504 1.18979 28.5761ZM12.3942 25.7848C13.2123 25.1563 12.7777 23.8467 11.751 23.8248C10.8755 23.8063 10.016 23.5864 9.23915 23.1823C8.46226 22.7782 7.78884 22.2006 7.27104 21.4944C7.77545 21.4638 8.27563 21.3837 8.76437 21.2552C9.87417 20.9548 9.82167 19.3536 8.69437 19.1275C7.70807 18.9301 6.7929 18.4713 6.04457 17.7992C5.29623 17.1271 4.74221 16.2662 4.44042 15.3067C4.99021 15.4423 5.55021 15.5182 6.10875 15.5284C7.21562 15.5342 7.63417 14.1152 6.73146 13.5217C4.69708 12.1815 3.82937 9.81461 4.40396 7.58919C7.98321 11.209 12.79 13.3545 17.8746 13.6019C18.0433 13.6103 18.2118 13.5795 18.3666 13.5118C18.5214 13.4441 18.6584 13.3414 18.7668 13.2118C18.8752 13.0821 18.9521 12.9291 18.9914 12.7648C19.0306 12.6004 19.0312 12.4292 18.9931 12.2646C18.3004 9.2619 19.9775 7.15753 21.7785 6.18773C23.5606 5.22523 26.4219 4.92482 28.6152 7.22607C29.2671 7.91294 31.4662 7.93919 32.5848 7.67815C32.0831 8.62315 31.3117 9.52003 30.5898 10.0246C30.4383 10.1306 30.3162 10.2733 30.2349 10.4394C30.1535 10.6054 30.1156 10.7893 30.1246 10.974C30.3594 15.7646 28.5744 20.5275 25.2275 24.0407C21.8558 27.58 17.1935 29.5298 12.0967 29.5298C10.0696 29.5298 8.08187 29.2002 6.20354 28.5644C8.44937 28.1298 10.5829 27.179 12.3942 25.7848Z" fill="#1A2632"/>
</g>
</g>
<defs>
<clipPath id="clip0_254_551">
<rect width="35" height="35" fill="white" transform="translate(0.5)"/>
</clipPath>
</defs>
</svg>
