<svg width="50" height="50" viewBox="0 0 50 50" fill="none" xmlns="http://www.w3.org/2000/svg">
<g id="Frame" clip-path="url(#clip0_249_558)">
<g id="Group">
<path id="Vector" d="M12.093 46.4321C15.9562 48.7568 20.3732 49.982 24.9115 49.982C38.6639 49.982 50 38.76 50 24.9908C50 11.2377 38.6799 0 24.9115 0C11.1851 0 0.0179687 11.2109 0.0179687 24.9908C0.0179687 29.5898 1.24355 34.0404 3.56787 37.9066L0 50L12.093 46.4321ZM2.94688 24.9908C2.94688 12.8258 12.8002 2.92852 24.9115 2.92852C37.1303 2.92852 47.0715 12.8258 47.0715 24.9908C47.0715 37.1562 37.1304 47.0531 24.9115 47.0531C20.7069 47.0531 16.621 45.8622 13.0966 43.6085L12.5336 43.2487L4.33154 45.6688L6.75127 37.4664L6.3915 36.9038C4.13779 33.3786 2.94688 29.2595 2.94688 24.9908Z" fill="#EE682C"/>
<path id="Vector_2" d="M12.1708 20.3862C12.6545 22.9264 14.0903 27.8123 18.2709 31.9927C22.4514 36.1734 27.3373 37.6095 29.8778 38.0933C32.787 38.6471 37.056 38.7307 39.1422 36.6444L40.3053 35.4813C40.8924 34.8942 41.2159 34.1133 41.2159 33.2829C41.2159 32.4524 40.8924 31.6719 40.3054 31.0849L35.654 26.4335C35.0666 25.8461 34.2861 25.523 33.4557 25.523C32.6252 25.523 31.8447 25.8462 31.2572 26.4336L30.0945 27.5963C29.3843 28.3066 28.0434 28.3097 27.3277 27.6051L22.6883 22.7711C22.6814 22.7639 22.6746 22.7566 22.6673 22.7498C21.9559 22.0383 21.9559 20.8806 22.6673 20.1691L23.8301 19.0064C25.0454 17.7911 25.0454 15.8246 23.8301 14.6096L19.1787 9.95825C17.9668 8.74634 15.9946 8.74634 14.7823 9.95825L13.6196 11.1213V11.121C11.9546 12.7866 11.3994 16.3365 12.1708 20.3862ZM15.6906 13.1924C16.9113 11.9996 16.8461 11.9766 16.9807 11.9766C17.0269 11.9766 17.073 11.9942 17.1081 12.0293C22.0093 16.9568 21.8124 16.6672 21.8124 16.8084C21.8124 16.8576 21.7945 16.9007 21.7598 16.9358L20.5967 18.0985C18.7446 19.9505 18.7374 22.9485 20.585 24.8089L25.227 29.6459C25.2342 29.6528 25.2411 29.6601 25.2483 29.6673C27.0999 31.5189 30.3078 31.525 32.1655 29.6673L33.3282 28.5046C33.3621 28.4709 33.4079 28.452 33.4557 28.452C33.5034 28.452 33.5493 28.4709 33.5831 28.5046C38.4842 33.4317 38.2873 33.1421 38.2873 33.2833C38.2873 33.3329 38.2694 33.3756 38.2347 33.4107L37.0716 34.5734C36.2747 35.3703 33.7364 35.8471 30.4257 35.2166C28.2162 34.7955 23.9677 33.548 20.3419 29.9221C16.7159 26.2962 15.4686 22.0479 15.0479 19.8384C14.4169 16.5276 14.8937 13.9889 15.6906 13.1924Z" fill="#EE682C"/>
</g>
</g>
<defs>
<clipPath id="clip0_249_558">
<rect width="50" height="50" fill="white"/>
</clipPath>
</defs>
</svg>
